<svg xmlns="http://www.w3.org/2000/svg"
 xmlns:xlink="http://www.w3.org/1999/xlink"
 width="223px" height="222px"  viewBox="0 0 223 222">
<path fill-rule="evenodd"  fill="#f655a0"
 d="M221.11743,110.86688 C221.11743,98.7688 211.30652,88.07056 199.1958,88.924194 C194.66284,89.24548 181.24329,92.3985 166.22058,96.2193 C181.14075,92.0199 194.34265,88.04761 198.42737,86.0603 C209.34485,80.750244 212.48706,66.579956 206.43286,56.10428 C200.37878,45.626343 186.52905,41.25937 176.46704,48.05191 C172.70483,50.594513 162.65564,60.02835 151.5614,70.84363 C162.38428,59.759888 171.8291,49.715637 174.36963,45.956787 C181.17139,35.898773 176.79749,22.061249 166.3153,16.009918 C155.82812,9.963165 141.65564,13.102417 136.33899,24.0141 C134.35168,28.094208 130.37451,41.27771 126.177124,56.1846 C129.99817,41.176758 133.15588,27.77295 133.47583,23.245361 C134.32861,11.140381 123.61621,1.339386 111.51282,1.339386 C99.40723,1.339386 88.69971,11.140381 89.555176,23.245361 C89.8728,27.77295 93.02783,41.176758 96.848755,56.1846 C92.65393,41.27771 88.6792,28.094208 86.68677,24.01181 C81.375244,13.102417 67.19519,9.963165 56.710693,16.012207 C46.228516,22.061249 41.856934,35.898773 48.651123,45.956787 C51.196777,49.715637 60.63147,59.748413 71.4541,70.83447 C60.365112,60.026062 50.323486,50.589935 46.556274,48.05191 C36.49695,41.25937 22.647095,45.626343 16.592773,56.10428 C10.543945,66.579956 13.681152,80.750244 24.598389,86.0603 C28.685669,88.04993 41.880005,92.0199 56.795044,96.21472 C41.777466,92.39392 28.36316,89.24548 23.830322,88.924194 C11.716675,88.07056 1.9108887,98.77112 1.9108887,110.86688 C1.9134521,122.964966 11.716675,133.66779 23.830322,132.81415 C28.36316,132.49286 41.775024,129.33984 56.789795,125.52136 C41.874756,129.71393 28.680786,133.68848 24.595947,135.67572 C13.681152,140.98816 10.54126,155.15381 16.592773,165.6341 C22.647095,176.10974 36.49695,180.47668 46.556274,173.68414 C50.323486,171.14386 60.365112,161.70544 71.45935,150.89703 C60.636475,161.9831 51.196777,172.02045 48.651123,175.78162 C41.856934,185.8327 46.228516,199.67255 56.710693,205.72388 C67.19519,211.77063 81.375244,208.63367 86.68677,197.72424 C88.6792,193.64185 92.65393,180.45605 96.854004,165.55145 C93.02783,180.55933 89.8728,193.96313 89.555176,198.49304 C88.69971,210.5957 99.40723,220.39899 111.51282,220.39899 C123.61621,220.39209 134.32861,210.5957 133.47583,198.49304 C133.15332,193.96313 129.99817,180.55243 126.172,165.54462 C130.37195,180.45148 134.3468,193.64185 136.33899,197.72424 C141.65564,208.63367 155.83313,211.77289 166.3153,205.72388 C176.79749,199.67255 181.17139,185.8327 174.36963,175.78162 C171.8291,172.01587 162.38428,161.97852 151.5614,150.89014 C162.65564,161.70312 172.70483,171.14386 176.4696,173.68414 C186.52905,180.47668 200.38135,176.10974 206.43286,165.6341 C212.48706,155.15381 209.34485,140.98816 198.42737,135.67572 C194.34265,133.68848 181.14343,129.71161 166.22302,125.516785 C181.24329,129.33759 194.66284,132.4906 199.1958,132.80957 C211.30652,133.66779 221.11743,122.964966 221.11743,110.86688 Z"/>
</svg>